# xmcd CD database file
#
# Track frame offsets:
#	150
#	12153
#	29088
#	46218
#	65608
#	84300
#	114910
#	132755
#	144238
#	162155
#	182605
#	204300
#	229810
#
# Disc length: 3202 seconds
#
# Revision: 2
# Processed by: cddbd v1.5.2PL0 Copyright (c) Steve Scherf et al.
# Submitted via: CDex 1.70beta2
#
DISCID=a20c800d
DTITLE=ローザ・ルクセンブルグ - ぷりぷり
DYEAR=1986
DGENRE=Rock
TTITLE0=おもちゃの血
TTITLE1=在中国的少年
TTITLE2=原宿エブリデイ～ブルーライト　ヨコハマ～
TTITLE3=イヨマンテ
TTITLE4=北京犬
TTITLE5=大きなたまご
TTITLE6=アイスクリン
TTITLE7=バカボンの国のポンパラスの種
TTITLE8=だけどジュリー
TTITLE9=ぶらぶら
TTITLE10=ニカアグラの星
TTITLE11=毬絵
TTITLE12=少女の夢（もろヴァージョン）
EXTD=YEAR: 1986
EXTT0=
EXTT1=
EXTT2=
EXTT3=
EXTT4=
EXTT5=
EXTT6=
EXTT7=
EXTT8=
EXTT9=
EXTT10=
EXTT11=
EXTT12=
PLAYORDER=
